<?xml version="1.0" encoding="utf-8"?>
<!-- Generator: Adobe Illustrator 15.0.0, SVG Export Plug-In . SVG Version: 6.00 Build 0)  -->
<!DOCTYPE svg PUBLIC "-//W3C//DTD SVG 1.1//EN" "http://www.w3.org/Graphics/SVG/1.1/DTD/svg11.dtd">
<svg version="1.1" id="圖層_1" xmlns="http://www.w3.org/2000/svg" xmlns:xlink="http://www.w3.org/1999/xlink" x="0px" y="0px"
	 width="99.21px" height="56.69px" viewBox="0 0 99.21 56.69" enable-background="new 0 0 99.21 56.69" xml:space="preserve">
<g>
	<g>
		<path fill="#E7CE81" d="M35.286,4.931H70.59C70.59,4.931,52.561-2.206,35.286,4.931z"/>
	</g>
	<g>
		<path fill="#75838F" d="M98.318,12.876c-0.785,0.126-1.393,0.552-1.828,1.27c-0.439,0.719-0.654,1.72-0.654,3l0.088,17.028
			c0,3.551,0.045,6.414,0.137,8.59c0,0.574-0.092,0.975-0.271,1.197h-0.406c-2.74-2.973-10.375-10.664-22.9-23.075L72.35,35.518
			v3.648c0,1.275,0.213,2.277,0.65,2.998c0.436,0.719,1.045,1.141,1.83,1.271v0.045h-7.498v-0.045
			c0.783-0.131,1.393-0.553,1.832-1.271c0.436-0.721,0.65-1.723,0.65-2.998v-4.225l0.137-17.603c0-2.081-0.029-3.617-0.09-4.608
			h0.133l22.678,21.875c0.24,0.291,0.406,0.434,0.5,0.434c0.115,0,0.176-0.207,0.176-0.623l-0.043-17.27c0-1.28-0.219-2.281-0.652-3
			c-0.439-0.718-1.051-1.144-1.832-1.27V12.83h7.498V12.876z"/>
		<g>
			<path fill="#75838F" d="M44.497,43.91l-0.043-0.289l-0.904-6.188l0.047-0.051c0.24,0.834,0.791,1.576,1.648,2.23
				c0.859,0.66,2.191,1.258,3.998,1.801c0.842,0.225,1.804,0.338,2.888,0.338c2.348,0,3.721-0.033,4.111-0.096
				c1.6-0.354,2.396-1.248,2.396-2.688V28.75c0-0.223-0.137-0.336-0.408-0.336c-3.705-0.033-6.504,0.017-8.4,0.144
				c-1.203,0-2.148,0.232-2.826,0.694c-0.676,0.467-1.074,1.115-1.197,1.943h-0.043c0.061-3.901,0.076-6.475,0.043-7.722h0.047
				c0.119,0.832,0.453,1.543,0.994,2.135c0.543,0.593,1.416,0.889,2.621,0.889c4.908-0.033,7.753-0.05,8.535-0.05
				c0.422,0,0.635-0.19,0.635-0.575v-9.787c0-0.382-0.029-0.621-0.09-0.718c-0.152-0.163-0.469-0.243-0.951-0.243
				c-2.227,0-3.977,0.018-5.24,0.051c-1.412,0.062-2.574,0.166-3.478,0.312c-0.904,0.143-1.623,0.336-2.168,0.575
				c-0.541,0.239-0.93,0.519-1.174,0.838c-0.242,0.322-0.389,0.688-0.449,1.104h-0.045l0.045-4.173v-0.769
				c0-0.192,0.48-0.256,1.443-0.192c1.145,0.097,2.381,0.163,3.705,0.192h0.316c1.898,0.066,3.958,0.097,6.187,0.097l8.266,0.047
				v0.05c-0.783,0.126-1.393,0.552-1.828,1.271c-0.439,0.718-0.654,1.719-0.654,2.999v0.046h-0.047l0.047,21.876
				c0,1.281,0.215,2.279,0.654,3c0.436,0.719,1.045,1.141,1.828,1.27v0.047c-4.365-0.029-7.844-0.047-10.434-0.047
				c-3.555,0-6.474,0.064-8.765,0.193c-0.418,0-0.734-0.016-0.947-0.049L44.497,43.91z"/>
		</g>
		<path fill="#75838F" d="M39.663,43.229c-0.938-0.303-1.66-1.127-1.846-2.164l-0.004-0.004l-0.002-0.066
			c-0.027-0.152-0.047-0.309-0.047-0.469c0-0.043,0.01-0.084,0.014-0.129l-0.037-0.699l-1.26-26.728c0,0-14.186,20.777-16.172,23.75
			L4.452,12.73L3.151,39.508l-0.047,0.961c0,0.02,0.008,0.037,0.008,0.057c0,0.061-0.014,0.113-0.018,0.172
			c0,0-0.082,0.729-0.133,0.727c-0.285,0.9-0.975,1.596-1.848,1.838c-0.043,0.09-0.111,0.152-0.223,0.174v0.045h7.5v-0.045
			c-0.105-0.021-0.178-0.07-0.229-0.137c-1.117-0.26-1.959-1.258-2.078-2.488c-0.008-0.016-0.02-0.246-0.02-0.246
			c-0.004-0.012,0.002-0.119,0.006-0.158L6.893,23.43c7.016,11.482,11.082,18.15,12.195,20.005l13.281-20.63l0.828,17.099
			c0.041,0.199,0.066,0.404,0.066,0.621c0,0.094-0.016,0.18-0.023,0.27l0.014,0.289c-0.004,0.016-0.033,0.016-0.047,0.029
			c-0.225,1.139-1.094,2.016-2.182,2.209c-0.012,0.002-0.016,0.014-0.029,0.016v0.047c1.594-0.029,2.992-0.047,4.199-0.047h0.77
			l3.93,0.047v-0.047C39.795,43.322,39.719,43.281,39.663,43.229z"/>
	</g>
	<g>
		<path fill="none" d="M71.09,51.76H35.786C35.786,51.76,53.814,58.896,71.09,51.76z"/>
	</g>
</g>
</svg>
