<?xml version="1.0" encoding="utf-8"?>
<!-- Generator: Adobe Illustrator 15.0.0, SVG Export Plug-In . SVG Version: 6.00 Build 0)  -->
<!DOCTYPE svg PUBLIC "-//W3C//DTD SVG 1.1//EN" "http://www.w3.org/Graphics/SVG/1.1/DTD/svg11.dtd">
<svg version="1.1" xmlns="http://www.w3.org/2000/svg" xmlns:xlink="http://www.w3.org/1999/xlink" x="0px" y="0px"
	 width="354.33px" height="170.079px" viewBox="0 0 354.33 170.079" enable-background="new 0 0 354.33 170.079"
	 xml:space="preserve">
<g id="圖層_1">
	<g>
		<polygon fill="#75838F" points="170.973,89.752 177.766,103.305 184.54,89.752 181.177,28.769 177.764,35.544 174.271,28.767 		
			"/>
		<path fill="#75838F" d="M172.561,9.353l5.196,10.125l5.189-10.162c0.521-1.157,1.573-2.014,2.843-2.279l0.005-0.012l-8.039-5.361
			l-8.058,5.373C170.981,7.306,172.044,8.177,172.561,9.353z"/>
		<path fill="#E7CE81" d="M204.481,19.479c0.004,0.003,0.005,0.021,0.009,0.03c0.488,0.588,0.796,1.332,0.796,2.157
			c0,0.111-0.025,0.216-0.033,0.323l0.016,0.004l-5.866,65.098h-0.016c0,1.072-0.51,2.018-1.288,2.639
			c-0.001,0.002-0.003,0.008-0.003,0.008l-0.004,0.016l20.329-13.551V28.769L204.481,19.479z"/>
		<path fill="#E7CE81" d="M151.046,19.479c-0.004,0.003-0.006,0.021-0.006,0.03c-0.492,0.588-0.797,1.332-0.797,2.157
			c0,0.111,0.022,0.216,0.031,0.323l-0.014,0.004l5.866,65.098h0.014c0,1.072,0.51,2.018,1.289,2.639
			c0,0.002,0.004,0.008,0.004,0.008l0.003,0.016l-20.33-13.551V28.769L151.046,19.479z"/>
	</g>
	<g>
		<path fill="#75838F" d="M33.007,126.094c-0.03,2.977-0.06,5.517-0.093,7.628h-0.18c-1.354-2.142-2.497-3.564-3.432-4.27
			c-1.174-0.895-3.195-1.343-6.052-1.343h-1.716c-0.542,0.066-0.845,0.192-0.904,0.386c-0.063,0.096-0.09,0.223-0.09,0.382
			l-0.047,23.603c0,0.895,0.223,1.649,0.679,2.255c0.299,0.479,0.675,0.888,1.13,1.224c0.449,0.336,0.978,0.568,1.576,0.694
			c0.063,0.067,0.077,0.113,0.046,0.144c-0.12,0.097-0.495,0.13-1.127,0.097c-3.884-0.156-6.883-0.156-8.988,0
			c-0.456,0.033-0.755-0.03-0.904-0.189c1.024-0.097,1.889-0.489,2.597-1.178c0.708-0.685,1.091-1.493,1.154-2.421l-0.047-24.228
			c0-0.319-0.153-0.559-0.452-0.718h-2.394c-2.86,0-4.878,0.448-6.055,1.343c-0.931,0.702-2.078,2.125-3.432,4.27h-0.18
			c-0.033-2.111-0.063-4.655-0.09-7.628l12.42,0.047L33.007,126.094z"/>
		<path fill="#75838F" d="M46.647,156.893h-0.047l-3.93-0.047h-0.995l-3.927,0.047v-0.047c1.383-0.193,2.194-1.311,2.438-3.358
			v-0.193c0.03-0.156,0.046-0.398,0.046-0.718l0.046-21.924h-0.046v-0.046c0-1.28-0.219-2.281-0.655-2.999
			c-0.439-0.722-1.047-1.145-1.829-1.274v-0.046l11.292-0.097c2.467,0.097,4.426,0.642,5.87,1.633
			c1.775,1.214,2.666,3.022,2.666,5.42c0,3.166-1.865,5.886-5.6,8.157c-0.426,0.126-0.708,0.285-0.858,0.479
			c5.87,9.051,11.545,13.959,17.03,14.728l1.531,0.286l-7.221,0.05c-2.953,0.033-5.527-1.327-7.729-4.077
			c-3.073-4.223-5.616-7.611-7.635-10.172c-1.324,0-2.348,0.08-3.069,0.239l0.136,9.644c0,1.28,0.216,2.277,0.655,2.999
			c0.436,0.719,1.044,1.145,1.829,1.271V156.893z M53.105,133.626c0-2.046-0.499-3.519-1.49-4.413
			c-0.964-0.928-2.514-1.39-4.655-1.39c-1.716,0-2.634,0.272-2.75,0.814c-0.033,0.126-0.047,0.286-0.047,0.479l-0.136,11.705h1.806
			c2.531,0,4.376-0.694,5.537-2.085C52.526,137.344,53.105,135.641,53.105,133.626z"/>
		<path fill="#75838F" d="M73.419,156.846h-5.463l-0.047-0.05c0.695-0.126,1.234-0.485,1.627-1.077
			c0.391-0.592,0.811-1.19,1.264-1.799c0.451-0.576,1.482-2.728,3.096-6.455c1.609-3.724,2.838-6.627,3.68-8.705
			c2.199-5.727,4.094-10.84,5.689-15.35c4.037,10.202,8.027,19.922,11.975,29.166c0.449,1.28,1.021,2.271,1.715,2.976
			c0.693,0.702,1.443,1.118,2.26,1.244v0.05l-7,0.047c-1.297-3.611-2.322-6.411-3.072-8.394H76.265L73.419,156.846z M88.235,146.246
			c-0.088-0.227-1.943-5.005-5.555-14.346l-5.736,14.728h11.471L88.235,146.246z"/>
		<path fill="#75838F" d="M131.345,126.241c-0.781,0.127-1.393,0.552-1.828,1.271c-0.439,0.718-0.656,1.719-0.656,2.999l0.09,17.028
			c0,3.552,0.047,6.415,0.137,8.589c0,0.576-0.09,0.975-0.273,1.197h-0.402c-2.742-2.973-10.377-10.664-22.904-23.073l-0.135,14.631
			v3.647c0,1.277,0.219,2.278,0.654,2.996c0.439,0.722,1.047,1.145,1.828,1.271v0.05h-7.494v-0.05
			c0.781-0.126,1.391-0.549,1.828-1.271c0.436-0.718,0.652-1.719,0.652-2.996v-4.223l0.137-17.607c0-2.078-0.031-3.614-0.088-4.605
			h0.135l22.674,21.877c0.24,0.286,0.406,0.433,0.498,0.433c0.121,0,0.18-0.206,0.18-0.626l-0.043-17.268
			c0-1.28-0.219-2.281-0.654-2.999c-0.439-0.719-1.051-1.144-1.832-1.271v-0.05h7.498V126.241z"/>
		<path fill="#75838F" d="M152.308,144.127c1.322,1.47,2.031,3.103,2.121,4.891c0.059,0.546,0.02,1.207-0.117,1.989
			c-0.129,0.784-0.412,1.513-0.83,2.185c-0.426,0.701-0.922,1.373-1.49,2.012c-0.576,0.642-1.07,1.041-1.494,1.2
			c-1.865,1.054-4.242,1.456-7.131,1.197c-3.555-0.319-5.869-1.067-6.957-2.251v-6.142c0.062,0.066,0.123,0.146,0.182,0.242
			c1.115,2.078,2.271,3.581,3.479,4.506c1.234,0.961,2.664,1.503,4.291,1.633c3.039,0.289,5.01-0.462,5.914-2.255
			c0.027-0.126,0.104-0.319,0.223-0.575c0.184-0.512,0.287-1.104,0.32-1.775c0.057-1.373-0.332-2.574-1.178-3.595
			c-0.844-0.991-2.57-2.397-5.189-4.223c-3.312-2.302-5.512-4.057-6.596-5.274c-1.232-1.503-1.789-3.292-1.668-5.37
			c0.119-2.175,1.074-3.94,2.865-5.301c1.789-1.356,4.023-1.925,6.707-1.702c1.896,0.193,3.582,0.608,5.059,1.247
			c1.383,0.608,2.027,1.15,1.938,1.633c0.033,0.286,0.064,2.095,0.09,5.417c0.184,0.319-0.109-0.144-0.877-1.391
			s-1.709-2.334-2.824-3.262c-1.02-0.861-2.406-1.356-4.152-1.486c-1.537-0.126-2.779,0.144-3.727,0.814
			c-0.949,0.672-1.467,1.713-1.557,3.119c-0.061,1.311,0.332,2.494,1.174,3.548c0.781,0.961,2.271,2.158,4.473,3.599
			C148.722,140.898,151.044,142.687,152.308,144.127z"/>
		<path fill="#75838F" d="M168.001,156.913h-8.852v-0.047c1.387-0.192,2.199-1.313,2.441-3.358v-0.289
			c0.029-0.126,0.043-0.336,0.043-0.622l0.047-21.876h-0.047v-0.047c0-1.28-0.217-2.281-0.652-2.999
			c-0.438-0.722-1.047-1.145-1.832-1.273v-0.047l8.268-0.047c2.227,0,4.293-0.033,6.188-0.097h0.316
			c1.326-0.033,2.561-0.096,3.705-0.192c0.963-0.063,1.445,0,1.445,0.192v0.766l0.043,4.176h-0.043
			c-0.062-0.415-0.213-0.784-0.451-1.104c-0.24-0.319-0.637-0.603-1.178-0.838c-0.539-0.243-1.264-0.433-2.164-0.579
			c-0.906-0.143-2.066-0.246-3.482-0.309c-1.264-0.033-3.01-0.051-5.236-0.051c-0.482,0-0.799,0.08-0.949,0.24
			c-0.059,0.096-0.09,0.336-0.09,0.722v9.786c0,0.382,0.211,0.575,0.633,0.575c0.785,0,3.627,0.017,8.539,0.046
			c1.203,0,2.074-0.296,2.617-0.884c0.541-0.593,0.875-1.308,0.994-2.139h0.047c-0.033,1.251-0.018,3.824,0.039,7.725h-0.039
			c-0.121-0.831-0.523-1.479-1.197-1.942c-0.68-0.462-1.619-0.694-2.824-0.694c-1.898-0.13-4.697-0.177-8.402-0.146
			c-0.27,0-0.406,0.113-0.406,0.339v10.697c0,1.277,0.217,2.278,0.656,2.996c0.432,0.722,1.043,1.145,1.824,1.273V156.913z"/>
		<path fill="#75838F" d="M217.444,141.401c0,4.509-1.566,8.329-4.695,11.465c-3.105,3.1-6.822,4.652-11.158,4.652
			c-4.549,0-8.328-1.457-11.336-4.366c-3.104-2.973-4.656-6.844-4.656-11.608c0-4.572,1.566-8.426,4.699-11.562
			c3.102-3.069,6.867-4.605,11.293-4.605c4.516,0,8.283,1.503,11.291,4.509C215.925,132.895,217.444,136.729,217.444,141.401z
			 M212.972,142.215c0-4.543-1.174-8.141-3.521-10.794c-2.23-2.527-5.197-3.791-8.898-3.791c-3.041,0-5.549,1.201-7.521,3.599
			c-1.971,2.397-2.959,5.516-2.959,9.354c0,4.605,1.145,8.236,3.432,10.89c2.229,2.561,5.24,3.838,9.035,3.838
			c3.072,0,5.58-1.207,7.521-3.621S212.972,146.116,212.972,142.215z"/>
		<path fill="#75838F" d="M231.056,156.893h-0.045l-3.93-0.047h-0.99l-3.932,0.047v-0.047c1.385-0.193,2.195-1.311,2.438-3.358
			v-0.193c0.031-0.156,0.047-0.398,0.047-0.718l0.043-21.924h-0.043v-0.046c0-1.28-0.219-2.281-0.654-2.999
			c-0.439-0.722-1.049-1.145-1.83-1.274v-0.046l11.293-0.097c2.467,0.097,4.426,0.642,5.869,1.633
			c1.779,1.214,2.666,3.022,2.666,5.42c0,3.166-1.867,5.886-5.6,8.157c-0.422,0.126-0.707,0.285-0.857,0.479
			c5.869,9.051,11.549,13.959,17.029,14.728l1.533,0.286l-7.227,0.05c-2.949,0.033-5.527-1.327-7.725-4.077
			c-3.068-4.223-5.615-7.611-7.635-10.172c-1.324,0-2.348,0.08-3.072,0.239l0.139,9.644c0,1.28,0.217,2.277,0.656,2.999
			c0.432,0.719,1.043,1.145,1.826,1.271V156.893z M237.517,133.626c0-2.046-0.496-3.519-1.49-4.413
			c-0.965-0.928-2.514-1.39-4.652-1.39c-1.717,0-2.637,0.272-2.756,0.814c-0.031,0.126-0.045,0.286-0.045,0.479l-0.139,11.705h1.809
			c2.527,0,4.373-0.694,5.533-2.085C236.937,137.344,237.517,135.641,237.517,133.626z"/>
	</g>
</g>
<g id="圖層_2" display="none">
	<g display="inline">
		<g>
			<path fill="#E7CE81" d="M288.487,118.084h35.305C323.792,118.084,305.763,110.948,288.487,118.084z"/>
		</g>
		<g>
			<path fill="#75838F" d="M351.521,126.03c-0.785,0.126-1.393,0.552-1.828,1.27c-0.439,0.719-0.654,1.72-0.654,3l0.088,17.028
				c0,3.551,0.045,6.414,0.137,8.589c0,0.575-0.092,0.975-0.271,1.197h-0.406c-2.74-2.973-10.375-10.664-22.9-23.074l-0.133,14.632
				v3.647c0,1.276,0.213,2.277,0.65,2.999c0.436,0.719,1.045,1.141,1.83,1.271v0.046h-7.498v-0.046
				c0.783-0.13,1.393-0.552,1.832-1.271c0.436-0.722,0.65-1.723,0.65-2.999v-4.224l0.137-17.604c0-2.081-0.029-3.617-0.09-4.608
				h0.133l22.678,21.876c0.24,0.29,0.406,0.433,0.5,0.433c0.115,0,0.176-0.206,0.176-0.622l-0.043-17.271
				c0-1.28-0.219-2.281-0.652-3c-0.439-0.718-1.051-1.144-1.832-1.27v-0.047h7.498V126.03z"/>
			<g>
				<path fill="#75838F" d="M297.698,157.064l-0.043-0.289l-0.904-6.188l0.047-0.05c0.24,0.834,0.791,1.576,1.648,2.23
					c0.859,0.659,2.191,1.258,3.998,1.8c0.842,0.226,1.805,0.339,2.889,0.339c2.348,0,3.721-0.033,4.111-0.097
					c1.6-0.353,2.396-1.247,2.396-2.687v-10.219c0-0.223-0.137-0.336-0.408-0.336c-3.705-0.033-6.504,0.017-8.4,0.144
					c-1.203,0-2.148,0.232-2.826,0.694c-0.676,0.466-1.074,1.114-1.197,1.942h-0.043c0.061-3.9,0.076-6.475,0.043-7.722h0.047
					c0.119,0.832,0.453,1.543,0.994,2.135c0.543,0.593,1.416,0.889,2.621,0.889c4.908-0.033,7.754-0.05,8.535-0.05
					c0.422,0,0.635-0.19,0.635-0.575v-9.787c0-0.382-0.029-0.621-0.09-0.718c-0.152-0.163-0.469-0.243-0.951-0.243
					c-2.227,0-3.977,0.018-5.24,0.051c-1.412,0.062-2.574,0.166-3.479,0.312c-0.904,0.143-1.623,0.336-2.168,0.575
					c-0.541,0.239-0.93,0.519-1.174,0.838c-0.242,0.322-0.389,0.688-0.449,1.104h-0.045l0.045-4.173v-0.769
					c0-0.192,0.48-0.256,1.443-0.192c1.145,0.097,2.381,0.163,3.705,0.192h0.316c1.898,0.066,3.959,0.097,6.188,0.097l8.266,0.047
					v0.05c-0.783,0.126-1.393,0.552-1.828,1.271c-0.439,0.718-0.654,1.719-0.654,2.999v0.046h-0.047l0.047,21.877
					c0,1.28,0.215,2.278,0.654,3c0.436,0.718,1.045,1.141,1.828,1.27v0.047c-4.365-0.03-7.844-0.047-10.434-0.047
					c-3.555,0-6.475,0.063-8.766,0.193c-0.418,0-0.734-0.017-0.947-0.05L297.698,157.064z"/>
			</g>
			<path fill="#75838F" d="M292.864,156.382c-0.938-0.303-1.66-1.127-1.846-2.165l-0.004-0.003l-0.002-0.066
				c-0.027-0.153-0.047-0.31-0.047-0.469c0-0.044,0.01-0.084,0.014-0.13l-0.037-0.698l-1.26-26.729c0,0-14.186,20.776-16.172,23.749
				l-15.857-23.988l-1.301,26.778l-0.047,0.961c0,0.02,0.008,0.036,0.008,0.057c0,0.06-0.014,0.112-0.018,0.172
				c0,0-0.082,0.729-0.133,0.726c-0.285,0.901-0.975,1.596-1.848,1.839c-0.043,0.09-0.111,0.152-0.223,0.173v0.046h7.5v-0.046
				c-0.105-0.021-0.178-0.07-0.229-0.137c-1.117-0.259-1.959-1.257-2.078-2.487c-0.008-0.017-0.02-0.246-0.02-0.246
				c-0.004-0.013,0.002-0.119,0.006-0.159l0.822-16.976c7.016,11.482,11.082,18.149,12.195,20.005l13.281-20.63l0.828,17.099
				c0.041,0.199,0.066,0.405,0.066,0.622c0,0.093-0.016,0.179-0.023,0.269l0.014,0.29c-0.004,0.016-0.033,0.016-0.047,0.029
				c-0.225,1.138-1.094,2.016-2.182,2.208c-0.012,0.003-0.016,0.014-0.029,0.017v0.047c1.594-0.03,2.992-0.047,4.199-0.047h0.77
				l3.93,0.047v-0.047C292.997,156.475,292.921,156.435,292.864,156.382z"/>
		</g>
		<g>
			<path fill="none" d="M324.292,164.913h-35.305C288.987,164.913,307.017,172.049,324.292,164.913z"/>
		</g>
	</g>
</g>
</svg>
